<?xml version="1.0" encoding="UTF-8"?>
<svg id="Layer_1" data-name="Layer 1" xmlns="http://www.w3.org/2000/svg" viewBox="0 0 955.74 288.34">
  <defs>
    <style>
      .cls-1 {
        fill: #fff;
      }
    </style>
  </defs>
  <path class="cls-1" d="M3.2,284.55c-12.92-48.91,15.06-92.4,52.48-121.09,39.99-30.66,89-45.98,129.45-74.31,9.94-6.96,31.21-23.88,31.21-37.09,0-17.5-25.7-15.26-37.04-11.79-36.19,11.08-67.47,46-107.53,50.01C27.7,94.69,6.21,63.36,16.18,22.1c.55-2.28,3.82-12.19,5-13.36,3.66-3.62,10.42,4.59,14.41,6.6,32.63,16.44,86.55-1.71,121.5-6.73,24.77-3.56,64.82-8.96,76.9,19.44,16.34,38.39-26.22,75.62-51.29,98.58-30.68,28.1-99.8,80.54-98.39,125.82.56,18.06,22.8,18.05,35.24,11.63,32.32-16.67,57.09-76.61,102.38-59.09,29.36,11.36,30.66,59.06,10.11,79.15-76.13,1.16-152.6.34-228.84.41Z"/>
  <path class="cls-1" d="M800.98,149.89c-10.26,10.21-23.46,5.06-27.73-7.81-6.03-18.19-2.37-36.82,14.76-46.63,26.3-15.07,76.53-17.45,104.97-7.97,75.59,25.18,49.51,108.93,54.34,169.36.34,4.23,1.72,10.58,3.38,14.47,2.11,4.94,9.98,11.32.35,13.41-17.43-1.17-36.43,1.37-53.66,0-8.64-.69-15.95-3.83-19.17-12.34-1.09-2.88-1.04-6.93-2.41-9.14-3.79-6.08-13.11,6.29-16.21,8.81-47.33,38.39-113.34,4.8-96.36-57.49,8.68-31.84,46.76-54.75,76.41-64.33,9.99-3.23,19.63-4.39,29.64-7.12,11.96-7.68,6.33-28.48-3.36-35.92-14.55-11.17-32.45-2.73-43.08,9.43-8.26,9.45-13.76,25.21-21.86,33.27ZM870.3,242.31c3.79-3.87,6.18-11.62,6.65-16.98,1.08-12.26,1.17-36.13,0-48.31-2.42-25.17-27.91-8.9-37.3,2.61-11.71,14.34-16.44,39.73-8.43,56.77,6.86,14.6,28.01,17.2,39.08,5.9Z"/>
  <path class="cls-1" d="M418.4,104.65c23.37,24.13,35.09,82.87-10.53,87.48-24.58,2.49-53.2-2.4-77.63.1-1.27.13-7.42,1.77-7.74,2.23-3.5,4.96,10.02,16.48,13.62,19.23,20.96,16.07,58.06,27.73,82.17,13.01,4.71-2.88,10.83-10.9,16.18-8.46,13.81,6.3-1.63,33.81-8.12,41.73-31.67,38.65-97.75,35.12-133.88,4.72-59.26-49.86-43.58-153.04,31.19-177.77,31.41-10.39,71-6.79,94.75,17.72ZM324.25,115.89c-25.2,2.27-34.92,25.44-23.64,47.19,4.43,8.53,10.05,10.43,19.25,11.21,11.14.94,33.39.83,43.94-2.05,19.3-5.28,17.06-24.93,6.38-37.76-10.33-12.41-29.96-20.02-45.94-18.58Z"/>
  <path class="cls-1" d="M548.45,86.43c1.12-1.13,3.88-1.23,5.48-1.34,21.39-1.5,56.52-1.64,77.82,0,12.96,1,3.62,10.05,2.65,17.45-1.89,14.46,3.76,32.97,7.36,47.1,6.55,25.74,14.28,55.92,23.28,80.69,1.69,4.66,6.29,17.93,10.5,19.95,9.83,4.73,13.98-8.57,16.26-15.79,8.25-26.12,10.88-77.59-14.07-95.62-6.86-4.96-20-5.3-20.15-16.43-.44-32.79,72.95-59.47,87.86-22.91,8.14,19.96-5.69,52.49-12.36,72.27-12.7,37.64-26.66,74.94-39.88,112.4l-64.53.36c-16.41-1.68-20.34-11.69-25.08-25.33-16.66-47.92-27.41-99.92-44.86-147.33-1.42-3.86-3.08-8.14-5.09-11.71-2.12-3.76-9.07-9.83-5.18-13.75Z"/>
  <path class="cls-1" d="M445.52,35.53c-3.76-4.63,1.37-7.91,4.96-9.77,13.89-7.22,35.88-15.26,50.96-20.46,9.95-3.43,30.16-12.07,31.05,4.7l-.09,239.54c1.43,8.56.78,16.46,5.08,24.32,2.02,3.69,7.83,7.12,1.59,10.61-17.76-.84-37.87,1.88-55.35.09-14.95-1.53-21.68-11.2-22.74-25.57l.05-198.53c-1.5-6.85-1.26-16.35-7.41-20.94-1.84-1.37-7.44-3.17-8.09-3.98Z"/>
</svg>